<?xml version="1.0" standalone="no"?>
<!DOCTYPE svg PUBLIC "-//W3C//DTD SVG 20010904//EN"
 "http://www.w3.org/TR/2001/REC-SVG-20010904/DTD/svg10.dtd">
<svg version="1.0" xmlns="http://www.w3.org/2000/svg"
 width="700.000000pt" height="700.000000pt" viewBox="0 0 700.000000 700.000000"
 preserveAspectRatio="xMidYMid meet">
<metadata>
Created by potrace 1.11, written by Peter Selinger 2001-2013
</metadata>
<g transform="translate(0.000000,700.000000) scale(0.100000,-0.100000)"
fill="#000000" stroke="none">
<path d="M1725 6908 c-139 -24 -273 -89 -376 -183 -141 -128 -235 -304 -262
-491 -9 -60 -12 -488 -12 -1603 l0 -1521 -187 0 -188 0 0 -1015 c1 -558 4
-1015 8 -1016 4 0 88 -1 187 -2 l179 -2 2 -130 c2 -151 14 -231 51 -335 40
-113 99 -206 188 -296 109 -110 197 -164 337 -205 l73 -22 1939 -2 c1155 -1
1960 2 1990 8 218 39 414 178 530 376 36 61 86 187 92 231 2 14 8 48 13 75 6
32 10 863 11 2298 0 1926 -2 2252 -14 2275 -12 23 -530 538 -1086 1081 -74 73
-214 210 -310 305 -155 154 -180 174 -215 180 -63 9 -2894 4 -2950 -6z m2657
-237 c3 -1 6 -180 7 -398 0 -219 3 -416 6 -438 18 -117 74 -261 136 -352 96
-140 254 -262 413 -320 117 -42 164 -45 651 -47 l470 -1 0 -2155 c-1 -2041 -2
-2158 -18 -2215 -62 -208 -214 -360 -405 -405 -41 -9 -476 -12 -1965 -12
l-1912 0 -65 22 c-132 44 -226 117 -302 234 -63 97 -80 168 -86 342 l-4 151
1303 0 c717 0 1327 3 1354 7 349 47 645 316 754 683 43 145 59 361 36 498 -23
144 -89 314 -169 438 -83 130 -248 271 -390 336 -56 26 -173 58 -238 65 -24 2
-629 5 -1346 5 l-1302 1 2 1563 3 1562 23 62 c50 132 156 258 262 312 75 39
119 52 198 59 50 5 2548 8 2584 3z m655 -416 c173 -170 448 -442 611 -602
l297 -293 -402 1 c-372 0 -407 1 -475 20 -173 48 -307 158 -388 318 -54 109
-59 154 -60 580 l0 386 51 -50 c28 -28 193 -189 366 -360z m-2759 -3630 c179
-42 306 -177 337 -360 8 -45 8 -304 0 -338 -3 -12 -7 -35 -10 -52 -16 -99
-126 -233 -229 -280 -100 -45 -123 -48 -386 -49 l-195 -1 -1 548 -2 547 212 0
c151 0 229 -4 274 -15z m1092 -1 c145 -34 227 -118 238 -246 8 -104 -31 -184
-116 -236 l-34 -20 33 -7 c150 -33 228 -229 155 -390 -39 -84 -115 -141 -223
-166 -37 -8 -451 -16 -543 -10 -13 1 -15 65 -13 518 1 285 2 531 3 546 l0 28
219 -1 c152 -1 239 -6 281 -16z"/>
<path d="M1995 2492 c-20 -3 -21 -8 -20 -400 l0 -397 121 0 c134 1 189 15 241
63 86 79 106 151 101 361 -5 181 -19 230 -91 298 -60 58 -113 75 -232 77 -55
1 -109 0 -120 -2z"/>
<path d="M3088 2492 l-38 -3 0 -155 c0 -140 2 -154 18 -155 74 -4 223 2 249
10 83 24 121 84 109 169 -14 101 -64 129 -241 135 -33 1 -77 1 -97 -1z"/>
<path d="M3061 2042 c-8 -3 -11 -57 -11 -177 l0 -174 163 2 c149 3 165 5 204
26 89 50 104 204 27 272 -50 44 -84 52 -230 53 -78 1 -147 0 -153 -2z"/>
</g>
</svg>
